<?xml version="1.0" encoding="UTF-8" standalone="no"?>
<svg width="145px" height="76px" viewBox="0 0 145 76" version="1.1" xmlns="http://www.w3.org/2000/svg" xmlns:xlink="http://www.w3.org/1999/xlink">
    <!-- Generator: Sketch 45.2 (43514) - http://www.bohemiancoding.com/sketch -->
    <title>GL-logo-pos-rgb</title>
    <desc>Created with Sketch.</desc>
    <defs></defs>
    <g id="Symbols" stroke="none" stroke-width="1" fill="none" fill-rule="evenodd">
        <g id="Header/Main-header" transform="translate(-133.000000, -28.000000)" fill-rule="nonzero">
            <g id="GL-logo-pos-rgb" transform="translate(133.000000, 28.000000)">
                <g id="Leven" transform="translate(16.814915, 51.553333)">
                    <polygon id="Shape" fill="#2C2A29" points="0.136337145 0.859222222 6.27150868 0.859222222 6.27150868 18.5863333 16.0423374 18.5863333 16.0423374 23.7416667 0.136337145 23.7416667"></polygon>
                    <polygon id="Shape" fill="#2C2A29" points="20.5869089 0.859222222 36.7201378 0.859222222 36.7201378 6.01455556 26.7220804 6.01455556 26.7220804 9.81322222 35.0386463 9.81322222 35.0386463 14.652 26.7220804 14.652 26.7220804 18.5863333 37.1745949 18.5863333 37.1745949 23.7416667 20.5869089 23.7416667"></polygon>
                    <path d="M53.0805952,23.9677778 C52.944258,24.1486667 52.7170294,24.1486667 52.5806923,23.9677778 L39.6741092,0.859222222 L66.032624,0.859222222 L53.0805952,23.9677778 Z" id="Shape" fill="#F7AC4B"></path>
                    <polygon id="Shape" fill="#2C2A29" points="69.3047154 0.859222222 85.4379443 0.859222222 85.4379443 6.01455556 75.4853327 6.01455556 75.4853327 9.81322222 83.8018985 9.81322222 83.8018985 14.652 75.4853327 14.652 75.4853327 18.5863333 85.9378471 18.5863333 85.9378471 23.7416667 69.3047154 23.7416667"></polygon>
                    <path d="M96.3903616,12.3456667 L96.3903616,23.7416667 L90.6187558,23.7416667 L90.6187558,0.542666667 C90.6187558,0.361777778 90.7096472,0.180888889 91.0732129,0.497444444 L105.52495,12.3456667 L105.52495,0.859222222 L111.296556,0.859222222 L111.296556,24.0582222 C111.296556,24.3295556 111.205665,24.42 110.842099,24.1034444 L96.3903616,12.3456667 Z" id="Shape" fill="#2C2A29"></path>
                </g>
                <g id="Gezond" transform="translate(0.000000, 19.445556)" fill="#2C2A29">
                    <path d="M16.9966974,15.5564444 L12.4521259,15.5564444 L12.4521259,10.8533333 L22.4956289,10.8533333 L22.4956289,20.757 C20.3596803,22.5206667 17.5874917,23.9225556 12.4975716,23.9225556 C5.7261601,23.9225556 0.136337145,19.0837778 0.136337145,12.1647778 C0.136337145,5.24577778 5.77160581,0.452222222 12.3612345,0.452222222 C16.4059031,0.452222222 19.5871032,1.94455556 21.5867146,4.52222222 L17.3148174,8.23044444 C16.1786746,6.73811111 14.5426288,5.78844444 12.2248973,5.78844444 C8.452903,5.78844444 6.40784582,8.59222222 6.40784582,12.1647778 C6.40784582,15.7825556 8.49834871,18.7672222 12.5430174,18.7672222 C14.7698574,18.7672222 16.0423374,18.315 16.9966974,17.8627778 L16.9966974,15.5564444 Z" id="Shape"></path>
                    <polygon id="Shape" points="27.2219833 0.723555556 43.3552122 0.723555556 43.3552122 5.83366667 33.4026006 5.83366667 33.4026006 9.63233333 41.7191664 9.63233333 41.7191664 14.5163333 33.4026006 14.5163333 33.4026006 18.4506667 43.855115 18.4506667 43.855115 23.606 27.2219833 23.606"></polygon>
                    <g id="Group" transform="translate(46.809086, 0.000000)">
                        <path d="M0.409011435,23.2442222 L10.5888516,5.83366667 L2.13594861,5.83366667 L2.13594861,0.678333333 L20.0415603,0.678333333 C20.2233432,0.678333333 20.3142346,0.723555556 20.1324518,0.994888889 L9.95261159,18.4054444 L19.2689832,18.4054444 L19.2689832,23.5607778 L0.499902865,23.5607778 C0.318120005,23.606 0.227228575,23.5155556 0.409011435,23.2442222" id="Shape"></path>
                        <path d="M40.4012407,12.1647778 C40.4012407,8.547 38.2198464,5.78844444 34.3569606,5.78844444 C30.4940748,5.78844444 28.3126805,8.59222222 28.3126805,12.1647778 C28.3126805,15.7825556 30.4940748,18.5863333 34.3569606,18.5863333 C38.1744006,18.5863333 40.4012407,15.7373333 40.4012407,12.1647778 M21.9957261,12.1647778 C21.9957261,5.24577778 27.7218862,0.452222222 34.3569606,0.452222222 C40.992035,0.452222222 46.7181951,5.24577778 46.7181951,12.1647778 C46.7181951,19.0837778 40.992035,23.9225556 34.3569606,23.9225556 C27.7218862,23.8773333 21.9957261,19.0385556 21.9957261,12.1647778" id="Shape"></path>
                        <path d="M57.0343724,12.1647778 L57.0343724,23.5607778 L51.2627666,23.5607778 L51.2627666,0.361777778 C51.2627666,0.180888889 51.353658,-2.30371278e-15 51.7172237,0.316555556 L66.1689611,12.1647778 L66.1689611,0.678333333 L71.9405669,0.678333333 L71.9405669,23.8773333 C71.9405669,24.1486667 71.8496755,24.2391111 71.4861098,23.9225556 L57.0343724,12.1647778 Z" id="Shape"></path>
                        <path d="M85.8469557,18.4054444 C89.5735043,18.4054444 91.8457901,15.9634444 91.8457901,12.1647778 C91.8457901,8.36611111 89.5280586,5.92411111 85.8469557,5.92411111 L83.8018985,5.92411111 L83.8018985,18.4506667 L85.8469557,18.4506667 L85.8469557,18.4054444 Z M77.6212813,0.723555556 L86.5286414,0.723555556 C93.1637158,0.723555556 98.1627445,5.06488889 98.1627445,12.1647778 C98.1627445,19.2646667 93.1637158,23.606 86.5286414,23.606 L77.6212813,23.606 L77.6212813,0.723555556 Z" id="Shape"></path>
                    </g>
                </g>
                <g id="Vlaams_instituut" transform="translate(12.724800, 0.000000)" fill="#2C2A29">
                    <polygon id="Shape" points="2.7267429 7.00944444 0.409011435 0.0904444444 1.31792574 0.0904444444 1.45426288 0.768777778 3.22664577 6.15022222 3.3175372 6.15022222 5.27170294 0.814 5.45348581 0.0904444444 6.31695439 0.0904444444 3.77199435 7.00944444"></polygon>
                    <polygon id="Shape" points="12.9520288 7.00944444 9.54360016 7.00944444 9.58904587 4.92922222 9.54360016 0.0904444444 10.4070687 0.0904444444 10.361623 4.83877778 10.4070687 6.28588889 12.9974745 6.28588889 13.0429202 6.37633333"></polygon>
                    <path d="M18.5872975,0.994888889 L18.496406,0.994888889 L17.223926,4.43177778 L18.4509603,4.43177778 L19.6779946,4.43177778 L18.5872975,0.994888889 Z M20.4960175,7.00944444 L20.3142346,6.33111111 L19.9052232,5.15533333 L18.3600689,5.11011111 L16.9512517,5.15533333 L16.5422403,6.28588889 L16.3604574,7.00944444 L15.4969888,7.00944444 L18.0419489,0.0904444444 L19.0417546,0.0904444444 L21.3594861,7.00944444 L20.4960175,7.00944444 Z" id="Shape"></path>
                    <path d="M27.0402005,0.994888889 L26.949309,0.994888889 L25.676829,4.43177778 L26.9038633,4.43177778 L28.1308976,4.43177778 L27.0402005,0.994888889 Z M28.9489205,7.00944444 L28.7671376,6.33111111 L28.3581262,5.15533333 L26.8129719,5.11011111 L25.4041547,5.15533333 L24.9951433,6.28588889 L24.8133604,7.00944444 L23.9498918,7.00944444 L26.4948519,0.0904444444 L27.4946576,0.0904444444 L29.8123891,7.00944444 L28.9489205,7.00944444 Z" id="Shape"></path>
                    <polygon id="Shape" points="39.3559892 7.00944444 39.2196521 4.884 38.8560864 1.44711111 38.7651949 1.44711111 36.8110292 6.19544444 36.1293435 6.19544444 34.2660691 1.44711111 34.1751777 1.44711111 33.811612 4.83877778 33.6298291 7.00944444 32.9026977 7.00944444 33.6298291 0.0904444444 34.6296349 0.0904444444 34.9932006 1.13055556 36.4929092 5.11011111 36.5383549 5.11011111 38.1289549 1.08533333 38.4925206 0.0904444444 39.4923264 0.0904444444 40.1740121 7.00944444"></polygon>
                    <path d="M47.4453265,0.361777778 L47.3089894,1.17577778 L47.1726522,1.221 C46.7636408,0.904444444 46.2637379,0.723555556 45.8092808,0.723555556 C44.9458122,0.723555556 44.491355,1.31144444 44.491355,1.85411111 C44.491355,3.256 47.6725551,3.07511111 47.6725551,5.11011111 C47.6725551,6.19544444 46.7181951,7.09988889 45.3548236,7.09988889 C44.7640293,7.09988889 44.0823436,6.919 43.4915493,6.60244444 L43.5824407,5.698 L43.7187779,5.65277778 C44.2641265,6.15022222 44.9458122,6.37633333 45.445715,6.37633333 C46.3091836,6.37633333 46.8545322,5.78844444 46.8545322,5.20055556 C46.8545322,3.75344444 43.6733322,3.93433333 43.6733322,1.94455556 C43.6733322,0.859222222 44.5822465,1.42108547e-14 45.9456179,1.42108547e-14 C46.3091836,0.0452222222 46.8545322,0.135666667 47.4453265,0.361777778" id="Shape"></path>
                    <polygon id="Shape" points="56.1254581 7.00944444 55.2619895 7.00944444 55.3074352 4.92922222 55.2619895 0.0904444444 56.1709038 0.0904444444 56.0800124 4.83877778"></polygon>
                    <polygon id="Shape" points="65.714504 7.00944444 64.8055897 7.00944444 61.2153782 1.44711111 61.1244867 1.44711111 61.1244867 4.74833333 61.1699324 7.00944444 60.3519096 7.00944444 60.3973553 4.97444444 60.3519096 0.0904444444 61.2608239 0.0904444444 64.8510354 5.65277778 64.9419268 5.65277778 64.9419268 0.135666667 65.7599497 0.0452222222 65.714504 4.97444444"></polygon>
                    <path d="M73.3948298,0.361777778 L73.2584926,1.17577778 L73.1221555,1.221 C72.7131441,0.904444444 72.2132412,0.723555556 71.7587841,0.723555556 C70.8953155,0.723555556 70.4408583,1.31144444 70.4408583,1.85411111 C70.4408583,3.256 73.6220584,3.07511111 73.6220584,5.11011111 C73.6220584,6.19544444 72.6676984,7.09988889 71.3043269,7.09988889 C70.7135326,7.09988889 70.0318469,6.919 69.4410526,6.60244444 L69.531944,5.698 L69.6682812,5.65277778 C70.2136297,6.15022222 70.8953155,6.37633333 71.3952183,6.37633333 C72.2586869,6.37633333 72.8040355,5.78844444 72.8040355,5.20055556 C72.8040355,3.75344444 69.6228354,3.93433333 69.6228354,1.94455556 C69.6228354,0.859222222 70.5317497,1.42108547e-14 71.8951212,1.42108547e-14 C72.2586869,0.0452222222 72.8040355,0.135666667 73.3948298,0.361777778" id="Shape"></path>
                    <polygon id="Shape" points="81.0751556 0.859222222 79.8481213 0.768777778 79.1664356 0.768777778 79.1209899 4.83877778 79.1664356 7.00944444 78.2575213 7.00944444 78.3484127 4.92922222 78.302967 0.768777778 77.5758356 0.768777778 76.3488013 0.859222222 76.3033556 0.768777778 76.3488013 0.0904444444 81.0751556 0.0904444444 81.1206014 0.180888889"></polygon>
                    <polygon id="Shape" points="85.4379443 7.00944444 84.52903 7.00944444 84.6199214 4.92922222 84.52903 0.0904444444 85.4379443 0.0904444444 85.3924986 4.83877778"></polygon>
                    <polygon id="Shape" points="93.6636187 0.859222222 92.4365844 0.768777778 91.709453 0.768777778 91.709453 4.83877778 91.709453 7.00944444 90.8459844 7.00944444 90.9368758 4.92922222 90.8459844 0.768777778 90.1642986 0.768777778 88.9372643 0.859222222 88.8463729 0.768777778 88.9372643 0.0904444444 93.6636187 0.0904444444 93.7090644 0.180888889"></polygon>
                    <g id="Group" transform="translate(96.799373, 0.000000)">
                        <path d="M5.27170294,4.38655556 C5.31714866,6.105 4.31734293,7.09988889 2.63585147,7.09988889 C0.999805731,7.09988889 0.0908914301,6.15022222 0.136337145,4.477 L0.136337145,3.52733333 L0.136337145,0.0904444444 L0.999805731,0.0904444444 L0.954360016,4.38655556 C0.954360016,5.698 1.54515431,6.33111111 2.7267429,6.33111111 C3.90833149,6.33111111 4.49912579,5.698 4.49912579,4.477 L4.45368007,0.0904444444 L5.31714866,0.0904444444 L5.31714866,3.61777778 L5.27170294,4.38655556 Z" id="Shape"></path>
                        <path d="M14.2699545,4.38655556 C14.3154002,6.105 13.3155945,7.09988889 11.6341031,7.09988889 C9.99805731,7.09988889 9.08914301,6.15022222 9.13458872,4.477 L9.13458872,3.52733333 L9.13458872,0.0904444444 L9.99805731,0.0904444444 L9.95261159,4.38655556 C9.95261159,5.698 10.5434059,6.33111111 11.7249945,6.33111111 C12.9065831,6.33111111 13.4973774,5.698 13.4973774,4.477 L13.4519317,0.0904444444 L14.3154002,0.0904444444 L14.3154002,3.61777778 L14.2699545,4.38655556 Z" id="Shape"></path>
                    </g>
                    <polygon id="Shape" points="119.113219 0.859222222 117.886185 0.768777778 117.159053 0.768777778 117.159053 4.83877778 117.159053 7.00944444 116.295585 7.00944444 116.341031 4.92922222 116.295585 0.768777778 115.613899 0.768777778 114.341419 0.859222222 114.295973 0.768777778 114.386865 0.0904444444 119.113219 0.0904444444 119.158665 0.180888889"></polygon>
                </g>
            </g>
        </g>
    </g>
</svg>