<svg xmlns="http://www.w3.org/2000/svg" xml:space="preserve" style="enable-background:new 0 0 652 652" viewBox="0 0 652 652"><path d="M109 321.8c0 6.7-1.9 13.1-5.3 18.4l13.6 13.7c6.7-8.9 10.8-20.1 10.8-32.1s-4.2-23.2-10.8-32.1l-13.6 13.7c3.3 5.3 5.3 11.5 5.3 18.4z" style="fill:#b8d3f4" transform="translate(0 -1)"/><path d="M75.1 355.9c-18.6 0-33.9-15.4-33.9-34.1 0-18.7 15.3-34.1 33.9-34.1 6.9 0 13.1 2 18.3 5.6l13.6-13.7c-8.9-6.7-20-10.9-32-10.9-29.2 0-53.1 23.7-53.1 53.3s23.9 53 53.1 53c12.2 0 23.4-4.2 32.2-10.9l-13.6-13.7c-5.2 3.5-11.6 5.5-18.5 5.5z" style="fill:#3385ff" transform="translate(0 -1)"/><path d="M604.445 333.8c-3.4 0-6.4-1.4-8.5-3.8-.1-.2-.1-.5.1-.6l19.9-8.4 5.8-2.5c.2-.1.2-.2.2-.4-1.9-8.2-9.4-14.2-18.1-13.9-9.2.4-17 7.8-17.3 17.1-.5 10.3 7.7 18.9 18 18.9 7.5 0 13.9-4.6 16.6-11.1.1-.2 0-.5-.2-.5l-5.8-1.1c-.1 0-.4 0-.4.2-2.1 3.6-5.9 6.1-10.3 6.1zm0-23c3.4 0 6.5 1.5 8.5 3.9.1.2.1.5-.1.6 0 0-19.2 8.2-19.4 8.3-.2.1-.5-.1-.5-.2v-.9c-.1-6.6 5.1-11.7 11.5-11.7zm-18.7-6h-5.7c-.1 0-.2.1-.4.2l-9.2 27.1c-.2.6-.9.6-1.2 0l-9.2-27.1c0-.1-.1-.2-.4-.2h-5.7c-.2 0-.4.2-.4.5l11.7 34.1c0 .1.1.2.4.2h8.1c.1 0 .2-.1.4-.2l11.7-34.1c.2-.2.1-.5-.1-.5zm-37.5 0h-5.8c-.2 0-.4.1-.4.4v34.1c0 .2.1.4.4.4h5.8c.2 0 .4-.1.4-.4v-34.1c0-.1-.2-.4-.4-.4zm0-11.1h-5.8c-.2 0-.4.1-.4.4v5.8c0 .2.1.4.4.4h5.8c.2 0 .4-.1.4-.4V294c0-.2-.2-.3-.4-.3zm-12 11.1h-6.5c-.1 0-.2-.1-.2-.2v-14.8c0-.2-.1-.4-.4-.4h-5.8c-.2 0-.4.1-.4.4v14.8c0 .1-.1.2-.2.2h-6.4c-.2 0-.4.1-.4.4v5.8c0 .2.1.4.4.4h6.4c.1 0 .2.1.2.2v27.7c0 .2.1.4.4.4h5.8c.2 0 .4-.1.4-.4v-27.7c0-.1.1-.2.2-.2h6.5c.2 0 .4-.1.4-.4v-5.8c0-.1-.3-.4-.4-.4zm-38 29c-7.1 0-12.7-6.4-11.4-13.8.7-4 4.7-8.2 8.8-9 4.4-.9 8.5.6 11.1 3.6.1.1.4.1.5 0l4.1-4.1c.1-.1.1-.4 0-.5-3.4-3.8-8.5-6-14.1-5.8-9.1.5-16.7 7.9-17.2 17.1-.5 10.3 7.7 18.9 18 18.9 5.2 0 10-2.3 13.3-5.8.1-.1.1-.2 0-.4l-4.1-4.1c-.1-.1-.4-.1-.5 0-2 2.4-5.1 3.9-8.5 3.9zm-38.8 0c-3.4 0-6.4-1.4-8.5-3.8-.1-.2-.1-.5.1-.6l19.9-8.4 5.8-2.5c.2-.1.2-.2.2-.4-1.9-8.2-9.4-14.2-18.1-13.9-9.2.4-17 7.8-17.3 17.1-.5 10.3 7.7 18.9 18 18.9 7.5 0 13.9-4.6 16.6-11.1.1-.2 0-.5-.2-.5l-5.8-1.1c-.1 0-.4 0-.4.2-2.1 3.6-6 6.1-10.3 6.1zm0-23c3.4 0 6.5 1.5 8.5 3.9.1.2.1.5-.1.6 0 0-19.2 8.2-19.4 8.3-.2.1-.5-.1-.5-.2v-.9c-.1-6.6 5.1-11.7 11.5-11.7zm-22.9-21.4h-5.8c-.2 0-.4.1-.4.4v49.6c0 .2.1.4.4.4h5.8c.2 0 .4-.1.4-.4v-49.6c0-.3-.3-.4-.4-.4zm-12.7 0h-5.8c-.2 0-.4.1-.4.4v49.6c0 .2.1.4.4.4h5.8c.2 0 .4-.1.4-.4v-49.6c-.1-.3-.3-.4-.4-.4zm-28.4 21.4c6.4 0 11.5 5.2 11.5 11.5s-5.2 11.5-11.5 11.5-11.5-5.2-11.5-11.5 5.1-11.5 11.5-11.5zm0-6.6c-10 0-18 8.1-18 18 0 10 8.1 18 18 18s18-8.1 18-18-8.1-18-18-18zm-33.1 29.6c-7.1 0-12.7-6.4-11.4-13.8.7-4 4.7-8.2 8.8-9 4.4-.9 8.5.6 11.1 3.6.1.1.4.1.5 0l4.1-4.1c.1-.1.1-.4 0-.5-3.4-3.8-8.5-6-14.1-5.8-9.1.5-16.7 7.9-17.2 17.1-.5 10.3 7.7 18.9 18 18.9 5.2 0 10-2.3 13.3-5.8.1-.1.1-.2 0-.4l-4.1-4.1c-.1-.1-.4-.1-.5 0-2 2.4-5.1 3.9-8.5 3.9zm-58.9-29.6c-3.8 0-8.2 2.4-10.2 5.2-.1.2-.6.1-.6-.1v-4.1c0-.1-.1-.4-.4-.4h-5.8c-.1 0-.4.1-.4.4v34.3c0 .1.1.4.4.4h5.8c.1 0 .4-.1.4-.4v-17.1c0-6.5 4.4-11.1 10.7-11.1 8.3 0 10.8 5.5 10.8 11.9v16.4c0 .1.1.4.4.4h5.8c.1 0 .4-.1.4-.4v-16.4c0-10.1-4.8-19-17.3-19zm-38.3 29.6c-3.4 0-6.4-1.4-8.5-3.8-.1-.2-.1-.5.1-.6l19.9-8.4 5.8-2.5c.2-.1.2-.2.2-.4-1.9-8.2-9.4-14.2-18.1-13.9-9.2.4-17 7.8-17.3 17.1-.5 10.3 7.7 18.9 18 18.9 7.5 0 13.9-4.6 16.6-11.1.1-.2 0-.5-.2-.5l-5.8-1.1c-.1 0-.4 0-.4.2-2.2 3.6-6 6.1-10.3 6.1zm0-23c3.4 0 6.5 1.5 8.5 3.9.1.2.1.5-.1.6 0 0-19.2 8.2-19.4 8.3-.2.1-.5-.1-.5-.2v-.9c0-6.6 5.2-11.7 11.5-11.7zm-39.4-6.9c-4.5.1-8.1 1.9-10.6 4.9-.2.2-.6.1-.6-.2v-3.3c0-.2-.1-.4-.4-.4h-5.8c-.2 0-.4.1-.4.4V355c0 .2.1.4.4.4h5.7c.2 0 .4-.1.4-.4v-19.6c0-.4.4-.5.6-.2 2.5 3 6.2 4.9 10.9 4.9 11 0 19.8-10 17.7-21.3-1.4-8.9-9.2-15-17.9-14.9zm2.2 29.4c-7.8 1.3-14.6-5.5-13.3-13.3.8-4.7 4.6-8.7 9.4-9.4 7.8-1.3 14.6 5.5 13.3 13.3-.7 4.8-4.6 8.5-9.4 9.4zm-41.2-29.1c-10 0-18 8.1-18 18 0 10 8.1 18 18 18 10 0 18-8.1 18-18s-8.1-18-18-18zm0 6.6c6.4 0 11.5 5.2 11.5 11.5s-5.2 11.5-11.5 11.5-11.5-5.2-11.5-11.5 5.2-11.5 11.5-11.5z" style="fill:#7a7b82"/></svg>