<svg width="133" height="60" viewBox="0 0 133 60" fill="none" xmlns="http://www.w3.org/2000/svg">
<g clip-path="url(#clip0_332_3929)">
<path d="M128.13 57.615C128.125 57.6495 128.128 57.6848 128.139 57.7179C128.15 57.751 128.169 57.7811 128.193 57.8057C128.218 57.8304 128.248 57.849 128.281 57.86C128.314 57.871 128.35 57.874 128.384 57.869H128.577C128.739 57.869 128.82 57.7843 128.82 57.615V55.373C128.818 55.0939 128.868 54.8169 128.967 54.556C129.059 54.3121 129.197 54.088 129.373 53.896C129.546 53.7097 129.755 53.5598 129.987 53.455C130.229 53.3458 130.492 53.2905 130.758 53.293C130.918 53.2787 131.079 53.3035 131.228 53.3654C131.376 53.4272 131.507 53.5242 131.61 53.648C131.815 53.9974 131.907 54.4014 131.874 54.805V57.616C131.874 57.7854 131.955 57.87 132.117 57.87H132.31C132.345 57.8751 132.38 57.872 132.413 57.861C132.446 57.85 132.476 57.8314 132.501 57.8068C132.525 57.7821 132.544 57.752 132.555 57.7189C132.566 57.6858 132.569 57.6505 132.564 57.616V54.623C132.608 54.0902 132.462 53.559 132.153 53.123C131.985 52.9531 131.781 52.8223 131.556 52.7399C131.331 52.6575 131.091 52.6254 130.853 52.646C130.635 52.646 130.417 52.6798 130.209 52.746C129.998 52.8126 129.796 52.9064 129.609 53.025C129.426 53.141 129.26 53.2828 129.117 53.446C128.979 53.6015 128.869 53.7798 128.792 53.973H128.772C128.779 53.939 128.787 53.8883 128.797 53.821C128.807 53.7505 128.812 53.6793 128.812 53.608V53.019C128.812 52.8497 128.731 52.765 128.568 52.765H128.385C128.351 52.76 128.315 52.7631 128.282 52.7741C128.249 52.7851 128.219 52.8036 128.194 52.8283C128.17 52.8529 128.151 52.883 128.14 52.9162C128.129 52.9493 128.126 52.9845 128.131 53.019L128.13 57.615ZM123.016 54.815C123.07 54.369 123.278 53.956 123.605 53.648C123.923 53.3572 124.341 53.2009 124.772 53.212C124.965 53.2046 125.158 53.2398 125.336 53.3151C125.514 53.3905 125.673 53.5042 125.802 53.648C126.076 53.9749 126.225 54.3884 126.223 54.815H123.016ZM122.473 56.393C122.597 56.7107 122.785 56.9991 123.026 57.2401C123.267 57.4811 123.555 57.6694 123.873 57.793C124.213 57.928 124.577 57.9959 124.943 57.993C125.247 57.9905 125.549 57.9381 125.836 57.838C126.128 57.7416 126.402 57.5988 126.648 57.415C126.676 57.3987 126.7 57.3767 126.719 57.3505C126.738 57.3243 126.751 57.2944 126.758 57.2627C126.765 57.2311 126.765 57.1984 126.758 57.1668C126.751 57.1351 126.738 57.1053 126.719 57.079L126.638 56.957C126.623 56.9277 126.602 56.9021 126.575 56.8824C126.549 56.8628 126.518 56.8494 126.486 56.8435C126.453 56.8376 126.42 56.8393 126.388 56.8484C126.357 56.8575 126.327 56.8738 126.303 56.896C126.11 57.0465 125.895 57.1647 125.664 57.246C125.44 57.3283 125.203 57.3677 124.964 57.362C124.695 57.3649 124.428 57.3153 124.178 57.216C123.944 57.1223 123.731 56.9814 123.554 56.802C123.375 56.6186 123.235 56.4005 123.143 56.161C123.042 55.8965 122.989 55.6162 122.986 55.333H126.659C126.729 55.335 126.796 55.3094 126.847 55.262C126.872 55.2388 126.892 55.2104 126.905 55.1788C126.918 55.1472 126.924 55.1132 126.923 55.079C126.928 54.7367 126.878 54.3959 126.776 54.069C126.688 53.7858 126.543 53.5235 126.35 53.298C126.165 53.086 125.934 52.9194 125.675 52.811C125.395 52.6964 125.095 52.6396 124.792 52.644C124.442 52.6403 124.095 52.7084 123.772 52.844C123.47 52.9708 123.197 53.1591 122.972 53.397C122.744 53.6415 122.568 53.9296 122.454 54.244C122.329 54.5905 122.267 54.9567 122.271 55.325C122.268 55.6913 122.336 56.0546 122.471 56.395M119.341 57.618C119.336 57.6526 119.339 57.6878 119.35 57.7209C119.361 57.754 119.38 57.7841 119.404 57.8088C119.429 57.8334 119.459 57.852 119.492 57.863C119.525 57.874 119.561 57.8771 119.595 57.872H119.788C119.951 57.872 120.032 57.7874 120.032 57.618V55.71C120.03 55.4031 120.071 55.0974 120.154 54.802C120.225 54.5436 120.338 54.2986 120.489 54.077C120.621 53.8837 120.791 53.7196 120.989 53.595C121.18 53.4776 121.399 53.4162 121.623 53.418C121.812 53.418 121.907 53.3334 121.907 53.164V52.981C121.907 52.8183 121.819 52.7374 121.643 52.738C121.277 52.7382 120.924 52.8715 120.649 53.113C120.342 53.3777 120.117 53.7247 120 54.113H119.98C119.987 54.079 119.995 54.025 120.005 53.951C120.016 53.8701 120.021 53.7886 120.02 53.707V53.017C120.02 52.8477 119.939 52.763 119.777 52.763H119.594C119.56 52.758 119.524 52.7611 119.491 52.7721C119.458 52.783 119.428 52.8016 119.403 52.8263C119.379 52.851 119.36 52.881 119.349 52.9141C119.338 52.9473 119.335 52.9825 119.34 53.017L119.341 57.618ZM114.227 54.818C114.28 54.3721 114.488 53.9591 114.815 53.651C115.133 53.3602 115.551 53.204 115.982 53.215C116.175 53.2076 116.368 53.2428 116.546 53.3181C116.724 53.3935 116.883 53.5072 117.012 53.651C117.286 53.9778 117.435 54.3914 117.433 54.818H114.227ZM113.684 56.396C113.808 56.7137 113.996 57.0021 114.237 57.2432C114.478 57.4842 114.766 57.6724 115.084 57.796C115.424 57.931 115.788 57.9989 116.154 57.996C116.458 57.9935 116.76 57.9411 117.047 57.841C117.339 57.7447 117.613 57.6018 117.859 57.418C117.887 57.4017 117.911 57.3797 117.93 57.3535C117.949 57.3273 117.962 57.2974 117.969 57.2657C117.976 57.2341 117.976 57.2014 117.969 57.1698C117.962 57.1381 117.949 57.1082 117.93 57.082L117.849 56.96C117.834 56.9306 117.813 56.9051 117.786 56.8854C117.76 56.8657 117.729 56.8525 117.697 56.8466C117.664 56.8406 117.631 56.8423 117.599 56.8514C117.568 56.8605 117.538 56.8768 117.514 56.899C117.321 57.0495 117.106 57.1677 116.875 57.249C116.651 57.3313 116.414 57.3706 116.175 57.365C115.906 57.3679 115.639 57.3183 115.389 57.219C115.155 57.1254 114.942 56.9844 114.765 56.805C114.586 56.6216 114.446 56.4035 114.354 56.164C114.253 55.8995 114.2 55.6191 114.197 55.336H117.87C117.94 55.338 118.007 55.3124 118.058 55.265C118.083 55.2418 118.103 55.2134 118.116 55.1818C118.129 55.1502 118.135 55.1162 118.134 55.082C118.139 54.7397 118.089 54.3988 117.987 54.072C117.899 53.7888 117.754 53.5264 117.561 53.301C117.376 53.089 117.145 52.9223 116.886 52.814C116.606 52.6994 116.306 52.6426 116.003 52.647C115.653 52.6434 115.306 52.7114 114.983 52.847C114.681 52.9738 114.408 53.1621 114.183 53.4C113.955 53.6444 113.779 53.9326 113.665 54.247C113.54 54.5935 113.478 54.9597 113.482 55.328C113.479 55.6942 113.547 56.0576 113.682 56.398M108.431 54.492C108.503 54.2593 108.617 54.0415 108.766 53.849C108.905 53.6725 109.082 53.529 109.283 53.429C109.491 53.3266 109.721 53.2745 109.953 53.277C110.18 53.275 110.404 53.3271 110.607 53.429C110.806 53.5301 110.981 53.6735 111.119 53.849C111.268 54.0416 111.382 54.2594 111.454 54.492C111.538 54.7572 111.579 55.034 111.576 55.312C111.605 55.8486 111.448 56.3787 111.13 56.812C110.986 56.9921 110.802 57.1359 110.592 57.2318C110.383 57.3277 110.153 57.3729 109.923 57.364C109.697 57.3681 109.473 57.3194 109.268 57.2219C109.064 57.1243 108.885 56.9806 108.746 56.802C108.597 56.6091 108.486 56.389 108.421 56.154C108.343 55.8792 108.306 55.5946 108.309 55.309C108.306 55.031 108.347 54.7542 108.431 54.489M107.756 56.42C107.849 56.7284 108 57.0161 108.202 57.267C108.391 57.4976 108.631 57.6817 108.902 57.805C109.191 57.9333 109.504 57.9975 109.82 57.993C110.01 57.9929 110.2 57.9673 110.383 57.917C110.563 57.8688 110.735 57.7954 110.895 57.699C111.049 57.6057 111.189 57.4913 111.311 57.359C111.429 57.2324 111.525 57.0867 111.595 56.928H111.615C111.6 56.9759 111.59 57.0251 111.585 57.075C111.578 57.1305 111.575 57.1862 111.575 57.242V57.628C111.575 57.79 111.66 57.871 111.829 57.871H112.002C112.164 57.871 112.245 57.7864 112.245 57.617V50.991C112.245 50.8217 112.164 50.737 112.002 50.737H111.811C111.777 50.732 111.741 50.7351 111.708 50.7461C111.675 50.757 111.645 50.7756 111.62 50.8003C111.596 50.825 111.577 50.855 111.566 50.8881C111.555 50.9213 111.552 50.9565 111.557 50.991V53.284C111.551 53.4131 111.561 53.5425 111.587 53.669H111.567C111.498 53.5183 111.406 53.3796 111.293 53.258C111.175 53.1316 111.041 53.0222 110.893 52.933C110.742 52.8411 110.58 52.7695 110.411 52.72C110.241 52.6697 110.065 52.6441 109.888 52.644C109.565 52.6395 109.244 52.7053 108.949 52.837C108.671 52.9636 108.425 53.1508 108.229 53.385C108.022 53.6357 107.863 53.923 107.762 54.232C107.647 54.5807 107.591 54.9459 107.595 55.313C107.59 55.6875 107.643 56.0606 107.752 56.419M101.994 57.619C101.989 57.6535 101.992 57.6888 102.003 57.7219C102.014 57.755 102.033 57.7851 102.057 57.8097C102.082 57.8344 102.112 57.853 102.145 57.864C102.178 57.875 102.214 57.878 102.248 57.873H102.441C102.603 57.873 102.684 57.7883 102.685 57.619V55.377C102.683 55.0979 102.733 54.8208 102.832 54.56C102.924 54.3161 103.062 54.092 103.238 53.9C103.411 53.7136 103.62 53.5637 103.852 53.459C104.094 53.3498 104.357 53.2945 104.623 53.297C104.783 53.2827 104.944 53.3076 105.093 53.3694C105.241 53.4313 105.372 53.5282 105.475 53.652C105.68 54.0014 105.772 54.4054 105.739 54.809V57.62C105.739 57.7894 105.82 57.874 105.982 57.874H106.175C106.21 57.8791 106.245 57.876 106.278 57.865C106.311 57.854 106.341 57.8354 106.366 57.8108C106.39 57.7861 106.409 57.756 106.42 57.7229C106.431 57.6898 106.434 57.6545 106.429 57.62V54.627C106.473 54.0942 106.327 53.563 106.018 53.127C105.85 52.9571 105.646 52.8263 105.421 52.7439C105.196 52.6615 104.956 52.6294 104.718 52.65C104.5 52.65 104.282 52.6838 104.074 52.75C103.863 52.8166 103.661 52.9104 103.474 53.029C103.291 53.145 103.125 53.2869 102.982 53.45C102.844 53.6055 102.734 53.7838 102.657 53.977H102.637C102.644 53.943 102.652 53.893 102.662 53.825C102.672 53.7545 102.677 53.6833 102.677 53.612V53.023C102.677 52.8537 102.596 52.769 102.434 52.769H102.251C102.217 52.764 102.181 52.7671 102.148 52.7781C102.115 52.7891 102.085 52.8076 102.06 52.8323C102.036 52.8569 102.017 52.887 102.006 52.9202C101.995 52.9533 101.992 52.9885 101.997 53.023L101.994 57.619ZM97.722 55.564C98.295 55.3337 98.9114 55.2314 99.528 55.264H99.812V55.507C99.8136 55.7612 99.7706 56.0137 99.685 56.253C99.6074 56.474 99.4924 56.68 99.345 56.862C99.2079 57.0301 99.0377 57.1683 98.845 57.268C98.66 57.3651 98.454 57.4155 98.245 57.415C97.9483 57.4271 97.6575 57.3295 97.428 57.141C97.3252 57.0562 97.243 56.9491 97.1876 56.8278C97.1321 56.7066 97.1049 56.5743 97.108 56.441C97.1092 56.2504 97.168 56.0645 97.2767 55.9078C97.3854 55.7511 97.5389 55.6309 97.717 55.563M96.525 57.1C96.6083 57.2809 96.7293 57.4419 96.88 57.572C97.0414 57.7089 97.2274 57.8138 97.428 57.881C97.6534 57.9578 97.8901 57.9956 98.128 57.993C98.4082 58.0019 98.6861 57.9389 98.935 57.81C99.1326 57.7055 99.3125 57.5706 99.468 57.41C99.6235 57.2348 99.7534 57.0385 99.854 56.827H99.874C99.8577 56.8777 99.8492 56.9307 99.849 56.984C99.8457 57.0554 99.844 57.1314 99.844 57.212V57.618C99.839 57.6526 99.8421 57.6878 99.8531 57.7209C99.8641 57.754 99.8826 57.7841 99.9073 57.8088C99.932 57.8334 99.9621 57.852 99.9952 57.863C100.028 57.874 100.064 57.8771 100.098 57.872H100.26C100.422 57.872 100.503 57.7874 100.503 57.618V54.604C100.54 54.0734 100.365 53.5498 100.016 53.148C99.8279 52.9724 99.6056 52.8374 99.363 52.7514C99.1205 52.6654 98.8628 52.6302 98.606 52.648C98.316 52.6491 98.0275 52.6908 97.749 52.772C97.4799 52.8466 97.2222 52.9576 96.983 53.102C96.9514 53.1163 96.9237 53.1378 96.902 53.1649C96.8804 53.192 96.8655 53.2239 96.8585 53.2579C96.8516 53.2918 96.8528 53.327 96.8621 53.3604C96.8714 53.3938 96.8885 53.4245 96.912 53.45L96.973 53.55C96.9877 53.5807 97.009 53.6078 97.0355 53.6291C97.062 53.6505 97.093 53.6656 97.1261 53.6734C97.1592 53.6812 97.1937 53.6814 97.2269 53.6741C97.2601 53.6667 97.2913 53.652 97.318 53.631C97.5042 53.5145 97.7063 53.4255 97.918 53.367C98.1259 53.3075 98.3409 53.2769 98.557 53.276C99.3957 53.276 99.815 53.7127 99.815 54.586V54.747H99.521C98.7277 54.7047 97.9365 54.8636 97.221 55.209C96.9771 55.3257 96.7712 55.5092 96.6275 55.7383C96.4837 55.9674 96.408 56.2326 96.409 56.503C96.4067 56.7099 96.4501 56.9148 96.536 57.103M92.574 55.566C93.147 55.3357 93.7634 55.2333 94.38 55.266H94.664V55.509C94.6656 55.7632 94.6227 56.0157 94.537 56.255C94.4594 56.476 94.3444 56.682 94.197 56.864C94.0599 57.0321 93.8897 57.1703 93.697 57.27C93.512 57.367 93.306 57.4175 93.097 57.417C92.8003 57.429 92.5095 57.3315 92.28 57.143C92.1772 57.0582 92.095 56.9511 92.0396 56.8298C91.9841 56.7086 91.9569 56.5763 91.96 56.443C91.9612 56.2523 92.02 56.0665 92.1287 55.9098C92.2374 55.7531 92.3909 55.6329 92.569 55.565M91.377 57.102C91.4602 57.2829 91.5813 57.4439 91.732 57.574C91.8934 57.7109 92.0794 57.8158 92.28 57.883C92.5053 57.9598 92.7421 57.9976 92.98 57.995C93.2603 58.0039 93.5381 57.9409 93.787 57.812C93.9846 57.7076 94.1645 57.5725 94.32 57.412C94.4755 57.2368 94.6055 57.0406 94.706 56.829H94.726C94.7097 56.8798 94.7012 56.9327 94.701 56.986C94.6977 57.0573 94.696 57.1333 94.696 57.214V57.62C94.691 57.6545 94.6941 57.6898 94.7051 57.7229C94.7161 57.756 94.7346 57.7861 94.7593 57.8108C94.784 57.8354 94.8141 57.854 94.8472 57.865C94.8803 57.876 94.9155 57.8791 94.95 57.874H95.111C95.2737 57.874 95.3547 57.7894 95.354 57.62V54.606C95.3908 54.0754 95.2156 53.5518 94.867 53.15C94.6789 52.9744 94.4566 52.8394 94.214 52.7534C93.9715 52.6674 93.7138 52.6322 93.457 52.65C93.167 52.6511 92.8785 52.6928 92.6 52.774C92.3309 52.8486 92.0732 52.9596 91.834 53.104C91.8024 53.1183 91.7747 53.1399 91.753 53.167C91.7314 53.194 91.7165 53.2259 91.7095 53.2599C91.7026 53.2938 91.7038 53.329 91.7131 53.3624C91.7224 53.3958 91.7395 53.4265 91.763 53.452L91.824 53.552C91.8387 53.5827 91.86 53.6098 91.8865 53.6311C91.913 53.6525 91.944 53.6676 91.9771 53.6754C92.0102 53.6832 92.0447 53.6834 92.0779 53.676C92.1111 53.6687 92.1423 53.654 92.169 53.633C92.3552 53.5164 92.5573 53.4275 92.769 53.369C92.9769 53.3095 93.1919 53.2789 93.408 53.278C94.2467 53.278 94.666 53.7147 94.666 54.588V54.749H94.372C93.5787 54.7067 92.7875 54.8656 92.072 55.211C91.8281 55.3277 91.6222 55.5112 91.4785 55.7403C91.3347 55.9694 91.259 56.2346 91.26 56.505C91.2575 56.712 91.3009 56.9169 91.387 57.105M89.231 56.669C89.2108 57.0036 89.3216 57.3328 89.54 57.587C89.6514 57.6996 89.7854 57.7872 89.9331 57.8441C90.0808 57.901 90.239 57.9258 90.397 57.917C90.5731 57.917 90.661 57.8324 90.661 57.663V57.511C90.661 57.383 90.59 57.311 90.448 57.288C90.096 57.2474 89.92 57.0004 89.92 56.547V50.997C89.9251 50.9625 89.922 50.9273 89.911 50.8942C89.9 50.861 89.8815 50.8309 89.8568 50.8063C89.8321 50.7816 89.802 50.7631 89.7689 50.7521C89.7358 50.7411 89.7006 50.738 89.666 50.743H89.473C89.311 50.743 89.23 50.8277 89.23 50.997L89.231 56.669ZM84.899 57.669C84.9099 57.7314 84.9445 57.7871 84.9956 57.8244C85.0467 57.8617 85.1104 57.8777 85.173 57.869H85.508C85.5711 57.8731 85.6336 57.8554 85.6853 57.8191C85.7369 57.7827 85.7746 57.7298 85.792 57.669L88.257 51.033C88.3111 50.837 88.2444 50.739 88.057 50.739H87.811C87.7487 50.7323 87.686 50.749 87.6354 50.786C87.5847 50.823 87.5496 50.8776 87.537 50.939L85.619 56.154C85.5717 56.2873 85.5227 56.4464 85.472 56.631C85.4214 56.8157 85.379 56.9647 85.345 57.078H85.325C85.291 56.9634 85.2487 56.8144 85.198 56.631C85.1474 56.4477 85.0984 56.2887 85.051 56.154L83.151 50.939C83.1353 50.8773 83.0981 50.8232 83.046 50.7865C82.9939 50.7498 82.9305 50.733 82.867 50.739H82.634C82.424 50.739 82.3574 50.837 82.434 51.033L84.899 57.669ZM75.108 54.49C75.1803 54.2573 75.2938 54.0395 75.443 53.847C75.5825 53.6704 75.7594 53.5269 75.961 53.427C76.1694 53.3245 76.3989 53.2725 76.631 53.275C76.858 53.273 77.0822 53.3251 77.285 53.427C77.4846 53.528 77.6597 53.6713 77.798 53.847C77.9473 54.0396 78.0608 54.2574 78.133 54.49C78.2166 54.7552 78.2578 55.032 78.255 55.31C78.2844 55.8466 78.1268 56.3767 77.809 56.81C77.6651 56.9901 77.4809 57.1339 77.2713 57.2298C77.0616 57.3257 76.8324 57.371 76.602 57.362C76.3757 57.3662 76.1515 57.3175 75.9472 57.22C75.7429 57.1224 75.5641 56.9786 75.425 56.8C75.2758 56.6071 75.1654 56.387 75.1 56.152C75.0225 55.8772 74.9848 55.5926 74.988 55.307C74.9853 55.029 75.0264 54.7522 75.11 54.487M74.435 56.418C74.5278 56.7264 74.6792 57.014 74.881 57.265C75.0701 57.4956 75.3096 57.6797 75.581 57.803C75.8699 57.9313 76.1831 57.9954 76.499 57.991C76.6893 57.9909 76.8786 57.9654 77.062 57.915C77.2421 57.8668 77.4145 57.7934 77.574 57.697C77.728 57.6037 77.868 57.4893 77.99 57.357C78.1083 57.2304 78.2043 57.0847 78.274 56.926H78.294C78.2791 56.9739 78.269 57.0231 78.264 57.073C78.2574 57.1284 78.2541 57.1842 78.254 57.24V57.626C78.254 57.788 78.3387 57.869 78.508 57.869H78.681C78.843 57.869 78.924 57.7843 78.924 57.615V50.989C78.924 50.8197 78.843 50.735 78.681 50.735H78.488C78.4535 50.73 78.4183 50.7331 78.3852 50.7441C78.3521 50.7551 78.322 50.7736 78.2973 50.7983C78.2726 50.8229 78.2541 50.853 78.2431 50.8862C78.2321 50.9193 78.229 50.9545 78.234 50.989V53.282C78.2275 53.4111 78.2376 53.5405 78.264 53.667H78.244C78.175 53.5164 78.0826 53.3777 77.97 53.256C77.8525 53.1296 77.7178 53.0202 77.57 52.931C77.4195 52.8391 77.2574 52.7674 77.088 52.718C76.9183 52.6677 76.7421 52.6421 76.565 52.642C76.2418 52.6375 75.9213 52.7033 75.626 52.835C75.3481 52.9616 75.1021 53.1489 74.906 53.383C74.6988 53.6337 74.5404 53.921 74.439 54.23C74.3244 54.5787 74.2679 54.944 74.272 55.311C74.2673 55.6856 74.3203 56.0586 74.429 56.417M68.671 57.617C68.666 57.6516 68.6691 57.6868 68.6801 57.7199C68.6911 57.753 68.7096 57.7831 68.7343 57.8078C68.759 57.8324 68.7891 57.851 68.8222 57.862C68.8553 57.873 68.8905 57.8761 68.925 57.871H69.118C69.2801 57.871 69.361 57.7864 69.361 57.617V55.375C69.3588 55.0959 69.4087 54.8188 69.508 54.558C69.6 54.3141 69.7378 54.0901 69.914 53.898C70.0874 53.7117 70.2961 53.5618 70.528 53.457C70.7703 53.3478 71.0333 53.2925 71.299 53.295C71.4592 53.2807 71.6204 53.3056 71.7689 53.3674C71.9173 53.4292 72.0484 53.5262 72.151 53.65C72.3558 53.9994 72.448 54.4034 72.415 54.807V57.618C72.415 57.7874 72.496 57.872 72.658 57.872H72.851C72.8856 57.8771 72.9208 57.874 72.9539 57.863C72.987 57.852 73.0171 57.8334 73.0418 57.8088C73.0665 57.7841 73.085 57.754 73.096 57.7209C73.107 57.6878 73.1101 57.6526 73.105 57.618V54.625C73.149 54.0922 73.0034 53.561 72.694 53.125C72.5255 52.9551 72.3218 52.8243 72.0971 52.7419C71.8725 52.6595 71.6324 52.6274 71.394 52.648C71.1755 52.648 70.9583 52.6817 70.75 52.748C70.5388 52.8146 70.3371 52.9084 70.15 53.027C69.9667 53.143 69.801 53.2848 69.658 53.448C69.52 53.6035 69.41 53.7818 69.333 53.975H69.311C69.318 53.941 69.326 53.891 69.336 53.823C69.3463 53.7525 69.3513 53.6813 69.351 53.61V53.021C69.351 52.8517 69.2701 52.767 69.108 52.767H68.925C68.8905 52.762 68.8553 52.7651 68.8222 52.7761C68.7891 52.787 68.759 52.8056 68.7343 52.8303C68.7096 52.855 68.6911 52.885 68.6801 52.9181C68.6691 52.9513 68.666 52.9865 68.671 53.021V57.617ZM62.9381 54.501C63.0867 54.1364 63.3411 53.8247 63.6685 53.606C63.9959 53.3873 64.3813 53.2717 64.7751 53.274C65.0417 53.2718 65.306 53.3249 65.551 53.43C66.0286 53.6341 66.406 54.0187 66.601 54.5C66.7035 54.7514 66.7551 55.0206 66.753 55.292C66.7553 55.5703 66.7037 55.8464 66.601 56.105C66.4105 56.5962 66.0329 56.9918 65.551 57.205C65.3069 57.3138 65.0423 57.3691 64.7751 57.367C64.5062 57.3687 64.24 57.3135 63.9941 57.205C63.7542 57.1006 63.5374 56.9496 63.3563 56.7608C63.1752 56.5719 63.0334 56.3491 62.9391 56.105C62.8364 55.8464 62.7848 55.5703 62.7871 55.292C62.785 55.0206 62.8366 54.7514 62.9391 54.5M62.2851 56.353C62.5537 57.0007 63.0683 57.5154 63.7161 57.784C64.3921 58.0612 65.15 58.0612 65.826 57.784C66.3158 57.5786 66.7333 57.232 67.0252 56.7883C67.3171 56.3446 67.4702 55.8241 67.465 55.293C67.4681 54.9437 67.4005 54.5973 67.2663 54.2747C67.1321 53.9521 66.934 53.6601 66.684 53.416C66.4361 53.1764 66.1454 52.9855 65.827 52.853C65.3308 52.6452 64.7845 52.5878 64.256 52.6879C63.7274 52.788 63.2399 53.0412 62.854 53.416C62.606 53.6613 62.4096 53.9538 62.2764 54.2761C62.1431 54.5985 62.0757 54.9442 62.0781 55.293C62.075 55.6568 62.1448 56.0174 62.2851 56.353ZM57.126 57.647C57.126 57.7964 57.2071 57.8707 57.3691 57.87H61.1641C61.326 57.87 61.407 57.7854 61.407 57.616V57.504C61.4117 57.471 61.4086 57.4374 61.3981 57.4058C61.3875 57.3742 61.3698 57.3454 61.3462 57.3219C61.3226 57.2983 61.2939 57.2805 61.2623 57.27C61.2307 57.2594 61.1971 57.2563 61.1641 57.261H58.556C58.4274 57.261 58.3174 57.2644 58.226 57.271C58.1347 57.2777 58.0721 57.281 58.0381 57.281V57.261C58.0854 57.2137 58.148 57.147 58.226 57.061C58.304 56.975 58.3801 56.8853 58.4541 56.792L61.2041 53.352C61.2696 53.2681 61.3048 53.1645 61.3041 53.058V52.987C61.3041 52.8384 61.223 52.764 61.061 52.764H57.49C57.328 52.764 57.2471 52.8487 57.2471 53.018V53.13C57.2422 53.1631 57.2451 53.1969 57.2556 53.2286C57.2661 53.2603 57.2839 53.2892 57.3074 53.3129C57.331 53.3366 57.3598 53.3544 57.3915 53.365C57.4232 53.3757 57.457 53.3787 57.49 53.374H59.864C59.986 53.374 60.091 53.3723 60.1791 53.369C60.2436 53.3677 60.3081 53.3627 60.3721 53.354V53.374C60.3251 53.428 60.2641 53.496 60.1891 53.574C60.1141 53.652 60.0401 53.743 59.9661 53.838L57.226 57.278C57.1604 57.3619 57.1252 57.4655 57.126 57.572V57.647ZM52.448 54.816C52.5015 54.37 52.71 53.9569 53.0371 53.649C53.355 53.3581 53.7733 53.2019 54.2041 53.213C54.3972 53.2056 54.5897 53.2408 54.7677 53.3162C54.9457 53.3915 55.1049 53.5051 55.2341 53.649C55.5082 53.9758 55.6574 54.3894 55.655 54.816H52.448ZM51.905 56.394C52.0287 56.7116 52.217 57.0001 52.458 57.2411C52.699 57.4821 52.9874 57.6704 53.305 57.794C53.6455 57.929 54.0088 57.9969 54.375 57.994C54.6792 57.9915 54.9809 57.9391 55.268 57.839C55.5597 57.7426 55.8339 57.5998 56.0801 57.416C56.108 57.3997 56.1321 57.3777 56.1511 57.3515C56.17 57.3253 56.1832 57.2954 56.1899 57.2637C56.1966 57.2321 56.1966 57.1994 56.1899 57.1678C56.1832 57.1361 56.17 57.1062 56.1511 57.08L56.07 56.958C56.0551 56.9287 56.0336 56.9031 56.0071 56.8834C55.9807 56.8638 55.9501 56.8504 55.9177 56.8445C55.8852 56.8386 55.8519 56.8403 55.8202 56.8494C55.7885 56.8585 55.7594 56.8748 55.7351 56.897C55.5424 57.0475 55.3266 57.1658 55.0961 57.247C54.8721 57.3293 54.6346 57.3687 54.3961 57.363C54.1271 57.3659 53.8601 57.3163 53.6101 57.217C53.3758 57.1233 53.1634 56.9824 52.986 56.803C52.8067 56.6197 52.6668 56.4015 52.575 56.162C52.4739 55.8975 52.4208 55.6171 52.418 55.334H56.0911C56.1606 55.3359 56.2281 55.3105 56.279 55.263C56.3041 55.2398 56.3239 55.2114 56.337 55.1798C56.3501 55.1482 56.3563 55.1142 56.3551 55.08C56.3595 54.7377 56.3099 54.3969 56.208 54.07C56.1198 53.7868 55.9748 53.5245 55.782 53.299C55.5974 53.087 55.3665 52.9204 55.1071 52.812C54.827 52.6974 54.5266 52.6406 54.224 52.645C53.874 52.6413 53.5268 52.7094 53.2041 52.845C52.9019 52.9718 52.6295 53.1602 52.404 53.398C52.1764 53.6426 52.0005 53.9307 51.8871 54.245C51.762 54.5915 51.7 54.9576 51.7041 55.326C51.7012 55.6922 51.7691 56.0556 51.904 56.396M47.0591 56.668C46.7377 56.2356 46.5791 55.7038 46.611 55.166C46.5797 54.664 46.729 54.1674 47.0321 53.766C47.178 53.5982 47.3604 53.4659 47.5652 53.3793C47.7701 53.2926 47.992 53.2539 48.2141 53.266C48.4356 53.2521 48.6573 53.2901 48.8616 53.3769C49.066 53.4637 49.2472 53.5969 49.391 53.766C49.6903 54.1949 49.8336 54.7133 49.7971 55.235C49.8292 55.7522 49.6885 56.2655 49.397 56.694C49.264 56.8631 49.0922 56.9976 48.8963 57.0864C48.7003 57.1751 48.4859 57.2155 48.271 57.204C48.0396 57.2141 47.8091 57.1701 47.5976 57.0755C47.3862 56.9809 47.1997 56.8383 47.0531 56.659M46.453 59.359C46.4354 59.3879 46.4245 59.4204 46.4212 59.4541C46.4179 59.4878 46.4223 59.5218 46.434 59.5536C46.4458 59.5854 46.4646 59.614 46.489 59.6375C46.5134 59.661 46.5428 59.6786 46.5751 59.689C47.0391 59.8914 47.5398 59.9965 48.0461 59.998C48.3859 60.0024 48.724 59.9494 49.0461 59.841C49.3284 59.745 49.5876 59.5911 49.807 59.389C50.0185 59.1901 50.1846 58.9479 50.294 58.679C50.4125 58.3821 50.471 58.0647 50.466 57.745V53.017C50.4711 52.9825 50.468 52.9473 50.457 52.9141C50.446 52.881 50.4275 52.851 50.4028 52.8263C50.3781 52.8016 50.348 52.783 50.3149 52.7721C50.2818 52.7611 50.2466 52.758 50.2121 52.763H50.05C49.8874 52.763 49.806 52.8373 49.806 52.986V53.402C49.8038 53.4604 49.8105 53.5187 49.826 53.575H49.806C49.7579 53.461 49.6928 53.3548 49.613 53.26C49.5156 53.1434 49.4009 53.0422 49.273 52.96C49.1202 52.862 48.9546 52.7853 48.781 52.732C48.5741 52.6686 48.3585 52.6379 48.142 52.641C47.8222 52.6364 47.5047 52.6969 47.209 52.819C46.9367 52.9338 46.694 53.1089 46.4991 53.331C46.2955 53.5668 46.1418 53.8413 46.0471 54.138C45.9384 54.4773 45.8854 54.8318 45.89 55.188C45.8852 55.5564 45.9399 55.9231 46.0521 56.274C46.1502 56.5804 46.3071 56.8647 46.514 57.111C46.7093 57.3414 46.9536 57.5253 47.229 57.649C47.523 57.7776 47.8412 57.8418 48.162 57.837C48.4965 57.8556 48.8289 57.7749 49.1177 57.6052C49.4064 57.4355 49.6386 57.1842 49.785 56.883H49.805C49.7896 56.9357 49.7812 56.9901 49.78 57.045C49.7767 57.1117 49.7751 57.1784 49.7751 57.245V57.773C49.7867 57.9903 49.751 58.2074 49.6703 58.4094C49.5897 58.6114 49.4661 58.7935 49.308 58.943C48.9475 59.2422 48.4868 59.3934 48.0191 59.366C47.6089 59.365 47.2039 59.2749 46.8321 59.102C46.8036 59.0867 46.7723 59.0775 46.7401 59.0749C46.7079 59.0723 46.6756 59.0764 46.645 59.0869C46.6145 59.0974 46.5865 59.1142 46.5628 59.136C46.539 59.1579 46.52 59.1845 46.507 59.214L46.453 59.359ZM38.753 57.614C38.753 57.7833 38.834 57.868 38.996 57.868H39.189C39.2236 57.8731 39.2588 57.87 39.2919 57.859C39.325 57.848 39.3551 57.8294 39.3798 57.8048C39.4045 57.7801 39.423 57.75 39.434 57.7169C39.445 57.6838 39.4481 57.6485 39.4431 57.614V55.321H40.2751L41.868 57.695C41.8921 57.7516 41.9329 57.7994 41.9851 57.832C42.0405 57.8585 42.1017 57.8709 42.163 57.868H42.4271C42.4645 57.8728 42.5026 57.8678 42.5376 57.8536C42.5726 57.8394 42.6034 57.8165 42.627 57.787C42.661 57.733 42.6511 57.6587 42.597 57.564L40.8321 55.007V54.987L42.3741 53.069C42.4008 53.0441 42.4198 53.012 42.4289 52.9765C42.4379 52.941 42.4366 52.9037 42.425 52.869C42.4059 52.8355 42.3776 52.8083 42.3433 52.7905C42.3091 52.7728 42.2704 52.7653 42.232 52.769H41.9781C41.9197 52.7693 41.8621 52.7831 41.8101 52.8095C41.758 52.8359 41.7128 52.8741 41.6781 52.921L40.2681 54.721H39.446V50.997C39.4511 50.9625 39.448 50.9273 39.437 50.8942C39.426 50.861 39.4075 50.8309 39.3828 50.8063C39.3581 50.7816 39.328 50.7631 39.2949 50.7521C39.2618 50.7411 39.2266 50.738 39.1921 50.743H38.9991C38.8364 50.743 38.7554 50.8277 38.7561 50.997L38.753 57.614ZM36.4901 58.03C36.5152 58.1935 36.5046 58.3606 36.459 58.5196C36.4134 58.6786 36.3339 58.8259 36.2259 58.9513C36.118 59.0766 35.9841 59.1771 35.8336 59.2458C35.6831 59.3144 35.5195 59.3496 35.354 59.349C35.1854 59.3557 35.1007 59.4367 35.1 59.592V59.704C35.095 59.7386 35.0981 59.7738 35.1091 59.8069C35.1201 59.84 35.1386 59.8701 35.1633 59.8948C35.188 59.9194 35.2181 59.938 35.2512 59.949C35.2843 59.9599 35.3195 59.9631 35.354 59.958H35.454C35.6916 59.9607 35.9269 59.9123 36.1441 59.816C36.3516 59.7232 36.5368 59.5867 36.687 59.416C36.842 59.2392 36.964 59.036 37.0471 58.816C37.1373 58.5726 37.1821 58.3146 37.1791 58.055V53.022C37.1841 52.9875 37.181 52.9523 37.17 52.9192C37.159 52.886 37.1405 52.856 37.1158 52.8313C37.0911 52.8066 37.061 52.788 37.0279 52.7771C36.9948 52.7661 36.9596 52.763 36.925 52.768H36.7411C36.5784 52.768 36.4974 52.8527 36.4981 53.022L36.4901 58.03ZM36.9571 51.597C36.9901 51.6017 37.0237 51.5986 37.0553 51.5881C37.0869 51.5775 37.1156 51.5597 37.1392 51.5362C37.1628 51.5126 37.1805 51.4839 37.1911 51.4523C37.2016 51.4207 37.2047 51.387 37.2001 51.354V50.989C37.2001 50.8197 37.119 50.735 36.9571 50.735H36.711C36.549 50.735 36.4677 50.8197 36.467 50.989V51.354C36.4623 51.3871 36.4654 51.4208 36.476 51.4525C36.4866 51.4842 36.5045 51.513 36.5282 51.5366C36.5519 51.5602 36.5807 51.5779 36.6125 51.5884C36.6442 51.5989 36.678 51.6019 36.711 51.597H36.9571ZM34.217 57.614C34.212 57.6485 34.2151 57.6838 34.2261 57.7169C34.2371 57.75 34.2556 57.7801 34.2803 57.8048C34.305 57.8294 34.3351 57.848 34.3682 57.859C34.4013 57.87 34.4365 57.8731 34.4711 57.868H34.6641C34.826 57.868 34.9071 57.7833 34.9071 57.614V53.014C34.9071 52.8447 34.826 52.76 34.6641 52.76H34.4711C34.4365 52.755 34.4013 52.7581 34.3682 52.7691C34.3351 52.78 34.305 52.7986 34.2803 52.8233C34.2556 52.8479 34.2371 52.878 34.2261 52.9112C34.2151 52.9443 34.212 52.9795 34.217 53.014V57.614ZM34.694 51.597C34.7271 51.6017 34.7607 51.5986 34.7923 51.5881C34.8239 51.5775 34.8526 51.5597 34.8762 51.5362C34.8998 51.5126 34.9175 51.4839 34.9281 51.4523C34.9387 51.4207 34.9417 51.387 34.937 51.354V50.989C34.937 50.8197 34.856 50.735 34.694 50.735H34.44C34.278 50.735 34.197 50.8197 34.197 50.989V51.354C34.1924 51.387 34.1954 51.4207 34.206 51.4523C34.2166 51.4839 34.2343 51.5126 34.2579 51.5362C34.2815 51.5597 34.3102 51.5775 34.3418 51.5881C34.3734 51.5986 34.407 51.6017 34.44 51.597H34.694ZM31.759 56.666C31.739 57.0007 31.8502 57.33 32.069 57.584C32.1804 57.6966 32.3144 57.7842 32.4621 57.8411C32.6098 57.898 32.768 57.9228 32.926 57.914C33.102 57.914 33.19 57.8294 33.19 57.66V57.508C33.19 57.38 33.119 57.308 32.977 57.285C32.625 57.2444 32.449 56.9974 32.449 56.544V50.994C32.4541 50.9595 32.451 50.9243 32.44 50.8912C32.429 50.8581 32.4105 50.8279 32.3858 50.8033C32.3611 50.7786 32.331 50.76 32.2979 50.749C32.2648 50.7381 32.2296 50.735 32.195 50.74H32.002C31.84 50.74 31.7587 50.8247 31.758 50.994L31.759 56.666ZM26.635 54.819C26.6882 54.3731 26.8963 53.9601 27.223 53.652C27.541 53.3612 27.9593 53.2049 28.39 53.216C28.5832 53.2086 28.7757 53.2438 28.9537 53.3191C29.1317 53.3945 29.2909 53.5082 29.42 53.652C29.6942 53.9789 29.8434 54.3924 29.841 54.819H26.635ZM26.092 56.397C26.2156 56.7147 26.4039 57.0032 26.6449 57.2442C26.8859 57.4852 27.1744 57.6734 27.492 57.797C27.8325 57.932 28.1958 58 28.562 57.997C28.8662 57.9945 29.1679 57.9422 29.455 57.842C29.7467 57.7457 30.0209 57.6028 30.267 57.419C30.295 57.4027 30.3192 57.3807 30.3381 57.3545C30.357 57.3283 30.3702 57.2984 30.3769 57.2667C30.3836 57.2351 30.3836 57.2024 30.3769 57.1708C30.3702 57.1391 30.357 57.1093 30.338 57.083L30.257 56.961C30.2421 56.9316 30.2206 56.9061 30.1941 56.8864C30.1677 56.8668 30.1371 56.8534 30.1047 56.8475C30.0722 56.8416 30.0389 56.8433 30.0072 56.8524C29.9755 56.8615 29.9464 56.8778 29.922 56.9C29.7294 57.0505 29.5136 57.1687 29.283 57.25C29.0591 57.3323 28.8216 57.3717 28.583 57.366C28.314 57.3689 28.0471 57.3194 27.797 57.22C27.5628 57.1263 27.3504 56.9854 27.173 56.806C26.9937 56.6227 26.8538 56.4045 26.762 56.165C26.661 55.9005 26.6078 55.6202 26.605 55.337H30.278C30.3476 55.339 30.4151 55.3134 30.466 55.266C30.4911 55.2428 30.5109 55.2144 30.524 55.1828C30.5371 55.1512 30.5433 55.1172 30.542 55.083C30.5465 54.7407 30.4969 54.3998 30.395 54.073C30.3068 53.7898 30.1618 53.5275 29.969 53.302C29.7844 53.0901 29.5534 52.9234 29.294 52.815C29.014 52.7004 28.7136 52.6436 28.411 52.648C28.061 52.6443 27.7138 52.7124 27.391 52.848C27.0889 52.9748 26.8164 53.1631 26.591 53.401C26.363 53.6455 26.1868 53.9336 26.073 54.248C25.948 54.5945 25.886 54.9607 25.89 55.329C25.8871 55.6953 25.9551 56.0586 26.09 56.399M23.224 56.039C23.1924 56.544 23.3601 57.0413 23.691 57.424C23.8658 57.5945 24.0743 57.7264 24.3033 57.8112C24.5322 57.8959 24.7764 57.9316 25.02 57.916C25.2094 57.916 25.304 57.835 25.304 57.673V57.541C25.307 57.5087 25.3031 57.4762 25.2926 57.4455C25.2821 57.4148 25.2652 57.3867 25.243 57.363C25.1808 57.3177 25.1069 57.2913 25.03 57.287C24.8735 57.2898 24.7183 57.2581 24.5753 57.1941C24.4324 57.1302 24.3053 57.0356 24.203 56.917C23.9958 56.638 23.8935 56.295 23.914 55.948V53.391H24.951C25.1197 53.391 25.2044 53.3097 25.205 53.147V53.066C25.2101 53.0315 25.207 52.9963 25.196 52.9632C25.185 52.93 25.1665 52.8999 25.1418 52.8753C25.1171 52.8506 25.087 52.8321 25.0539 52.8211C25.0208 52.8101 24.9856 52.807 24.951 52.812H23.911V51.612C23.911 51.4434 23.83 51.3587 23.668 51.358H23.485C23.4505 51.353 23.4153 51.3561 23.3822 51.3671C23.3491 51.378 23.319 51.3966 23.2943 51.4213C23.2696 51.446 23.2511 51.476 23.2401 51.5091C23.2291 51.5423 23.226 51.5775 23.231 51.612V52.812H22.795C22.633 52.812 22.5517 52.8967 22.551 53.066V53.147C22.5462 53.1802 22.5491 53.214 22.5597 53.2459C22.5702 53.2777 22.588 53.3066 22.6117 53.3303C22.6354 53.3541 22.6644 53.3719 22.6962 53.3824C22.728 53.3929 22.7619 53.3959 22.795 53.391H23.221L23.224 56.039ZM19.155 57.839C19.4587 57.9437 19.7778 57.9968 20.099 57.996C20.3366 57.9987 20.5731 57.9625 20.799 57.889C20.9983 57.8257 21.1841 57.726 21.347 57.595C21.4972 57.4723 21.6184 57.318 21.702 57.143C21.7885 56.9589 21.8319 56.7574 21.829 56.554C21.8408 56.3066 21.7705 56.0623 21.629 55.859C21.4924 55.6781 21.3228 55.5247 21.129 55.407C20.9226 55.2836 20.7033 55.183 20.475 55.107C20.2384 55.0257 20.02 54.9393 19.82 54.848C19.6381 54.7673 19.4695 54.6594 19.32 54.528C19.2538 54.468 19.2015 54.3942 19.167 54.3118C19.1324 54.2293 19.1164 54.1403 19.12 54.051C19.1153 53.9407 19.1368 53.8308 19.1827 53.7303C19.2286 53.6299 19.2976 53.5417 19.384 53.473C19.5992 53.3189 19.8609 53.2437 20.125 53.26C20.3209 53.26 20.5157 53.289 20.703 53.346C20.8861 53.4004 21.0605 53.4805 21.221 53.584C21.2461 53.608 21.2765 53.6255 21.3098 53.6351C21.3431 53.6447 21.3782 53.646 21.4122 53.6391C21.4461 53.6321 21.4778 53.6169 21.5046 53.595C21.5314 53.573 21.5525 53.5449 21.566 53.513L21.637 53.401C21.6574 53.3754 21.6719 53.3456 21.6794 53.3138C21.6869 53.2819 21.6873 53.2488 21.6805 53.2168C21.6737 53.1848 21.6599 53.1547 21.6401 53.1286C21.6204 53.1025 21.5951 53.0812 21.566 53.066C21.3659 52.9342 21.1471 52.833 20.917 52.766C20.6737 52.6915 20.4206 52.6538 20.166 52.654C19.924 52.6505 19.6829 52.6843 19.451 52.754C19.2507 52.8147 19.0644 52.9147 18.903 53.048C18.754 53.1722 18.6345 53.328 18.553 53.504C18.4706 53.6855 18.429 53.8828 18.431 54.082C18.4186 54.3279 18.489 54.5709 18.631 54.772C18.7704 54.9513 18.9424 55.1027 19.138 55.218C19.3459 55.3419 19.5653 55.4454 19.793 55.527C20.0264 55.6117 20.2447 55.6997 20.448 55.791C20.6316 55.8706 20.8024 55.9767 20.955 56.106C21.0207 56.1633 21.0727 56.2345 21.1073 56.3144C21.1419 56.3943 21.1582 56.481 21.155 56.568C21.1592 56.6835 21.1355 56.7982 21.0861 56.9026C21.0367 57.007 20.9629 57.098 20.871 57.168C20.6534 57.3256 20.3885 57.4043 20.12 57.391C19.6314 57.3871 19.1575 57.223 18.771 56.924C18.6224 56.836 18.5074 56.8497 18.426 56.965L18.345 57.065C18.2437 57.207 18.2574 57.322 18.386 57.41C18.6173 57.601 18.8822 57.7471 19.167 57.841M13.546 54.822C13.5992 54.3761 13.8073 53.963 14.134 53.655C14.452 53.3642 14.8703 53.2079 15.301 53.219C15.4942 53.2116 15.6867 53.2468 15.8647 53.3221C16.0427 53.3975 16.2019 53.5112 16.331 53.655C16.6052 53.9818 16.7544 54.3954 16.752 54.822H13.546ZM13.003 56.4C13.1266 56.7177 13.3149 57.0061 13.5559 57.2472C13.7969 57.4882 14.0854 57.6764 14.403 57.8C14.7435 57.935 15.1068 58.0029 15.473 58C15.7772 57.9975 16.0789 57.9452 16.366 57.845C16.6577 57.7486 16.9319 57.6058 17.178 57.422C17.206 57.4057 17.2302 57.3837 17.2491 57.3575C17.268 57.3312 17.2812 57.3014 17.2879 57.2697C17.2946 57.2381 17.2946 57.2054 17.2879 57.1738C17.2812 57.1421 17.268 57.1122 17.249 57.086L17.168 56.964C17.1531 56.9346 17.1316 56.9091 17.1051 56.8894C17.0787 56.8697 17.0481 56.8565 17.0157 56.8505C16.9832 56.8446 16.9499 56.8463 16.9182 56.8554C16.8865 56.8645 16.8574 56.8808 16.833 56.903C16.6404 57.0535 16.4246 57.1717 16.194 57.253C15.9701 57.3353 15.7326 57.3746 15.494 57.369C15.225 57.3719 14.9581 57.3223 14.708 57.223C14.4738 57.1293 14.2614 56.9884 14.084 56.809C13.9048 56.6256 13.7649 56.4075 13.673 56.168C13.572 55.9035 13.5188 55.6232 13.516 55.34H17.189C17.2586 55.342 17.3261 55.3165 17.377 55.269C17.4021 55.2458 17.4219 55.2174 17.435 55.1858C17.4481 55.1542 17.4543 55.1202 17.453 55.086C17.4575 54.7437 17.4079 54.4028 17.306 54.076C17.2178 53.7928 17.0728 53.5305 16.88 53.305C16.6954 53.093 16.4644 52.9264 16.205 52.818C15.925 52.7034 15.6246 52.6466 15.322 52.651C14.972 52.6473 14.6248 52.7154 14.302 52.851C13.9999 52.9777 13.7274 53.1661 13.502 53.404C13.2743 53.6485 13.0984 53.9367 12.985 54.251C12.86 54.5975 12.798 54.9637 12.802 55.332C12.7992 55.6982 12.8671 56.0616 13.002 56.402M8.02505 54.824C8.07824 54.3781 8.28635 53.9651 8.61305 53.657C8.93103 53.3662 9.3493 53.21 9.78005 53.221C9.97322 53.2136 10.1657 53.2488 10.3437 53.3242C10.5217 53.3995 10.6809 53.5131 10.81 53.657C11.0842 53.9838 11.2334 54.3974 11.231 54.824H8.02505ZM7.48205 56.402C7.60564 56.7197 7.79391 57.0081 8.03492 57.2491C8.27593 57.4901 8.56441 57.6784 8.88205 57.802C9.22249 57.937 9.58582 58.0049 9.95205 58.002C10.2562 57.9995 10.5578 57.9471 10.845 57.847C11.1367 57.7506 11.4109 57.6078 11.657 57.424C11.685 57.4077 11.7092 57.3857 11.7281 57.3595C11.747 57.3333 11.7602 57.3034 11.7669 57.2717C11.7736 57.2401 11.7736 57.2074 11.7669 57.1758C11.7602 57.1441 11.747 57.1142 11.728 57.088L11.647 56.966C11.6321 56.9367 11.6106 56.9111 11.5841 56.8914C11.5577 56.8718 11.5271 56.8584 11.4947 56.8525C11.4622 56.8466 11.4289 56.8483 11.3972 56.8574C11.3655 56.8665 11.3364 56.8828 11.312 56.905C11.1194 57.0555 10.9036 57.1737 10.673 57.255C10.4491 57.3373 10.2116 57.3767 9.97305 57.371C9.70405 57.3739 9.43706 57.3244 9.18705 57.225C8.95283 57.1313 8.74042 56.9904 8.56305 56.811C8.38378 56.6276 8.24392 56.4095 8.15205 56.17C8.05102 55.9055 7.99786 55.6252 7.99505 55.342H11.668C11.7376 55.344 11.8051 55.3185 11.856 55.271C11.8811 55.2478 11.9009 55.2194 11.914 55.1878C11.9271 55.1562 11.9333 55.1222 11.932 55.088C11.9365 54.7457 11.8869 54.4049 11.785 54.078C11.6968 53.7948 11.5518 53.5325 11.359 53.307C11.1744 53.0951 10.9434 52.9284 10.684 52.82C10.404 52.7054 10.1036 52.6486 9.80105 52.653C9.45096 52.6493 9.10382 52.7174 8.78105 52.853C8.47885 52.9798 8.20639 53.1681 7.98105 53.406C7.75292 53.6505 7.57671 53.9386 7.46305 54.253C7.33801 54.5995 7.27604 54.9656 7.28005 55.334C7.27715 55.7002 7.34506 56.0636 7.48005 56.404M2.63505 56.676C2.31621 56.2455 2.15839 55.7169 2.18905 55.182C2.1578 54.6801 2.30713 54.1835 2.61005 53.782C2.75601 53.6142 2.93837 53.4819 3.14321 53.3953C3.34805 53.3086 3.56997 53.2699 3.79205 53.282C4.0136 53.2681 4.23533 53.3061 4.43965 53.3929C4.64396 53.4797 4.82522 53.6129 4.96905 53.782C5.26836 54.2109 5.41165 54.7293 5.37505 55.251C5.40717 55.7683 5.26646 56.2815 4.97505 56.71C4.84198 56.8791 4.67023 57.0136 4.47426 57.1024C4.2783 57.1911 4.06387 57.2315 3.84905 57.22C3.61764 57.2301 3.38706 57.1861 3.17563 57.0915C2.9642 56.9969 2.77774 56.8543 2.63105 56.675M2.03105 59.375C2.01337 59.4039 2.00248 59.4364 1.99918 59.4701C1.99588 59.5038 2.00027 59.5378 2.01201 59.5696C2.02376 59.6014 2.04255 59.6301 2.06698 59.6535C2.09141 59.677 2.12083 59.6946 2.15305 59.705C2.61713 59.9074 3.11776 60.0126 3.62405 60.014C3.96385 60.0185 4.30195 59.9654 4.62405 59.857C4.90643 59.761 5.16563 59.607 5.38505 59.405C5.59657 59.2061 5.76268 58.964 5.87205 58.695C5.99095 58.3982 6.04976 58.0807 6.04505 57.761V53.033C6.05009 52.9985 6.04699 52.9633 6.03601 52.9302C6.02502 52.8971 6.00646 52.8669 5.98179 52.8423C5.95712 52.8176 5.92702 52.799 5.89391 52.788C5.86079 52.7771 5.82557 52.774 5.79105 52.779H5.62905C5.46705 52.779 5.38605 52.8533 5.38605 53.002V53.418C5.38377 53.4764 5.39051 53.5347 5.40605 53.591H5.38605C5.33784 53.477 5.27279 53.3708 5.19305 53.276C5.09566 53.1593 4.981 53.0581 4.85305 52.976C4.70012 52.8781 4.53461 52.8014 4.36105 52.748C4.15407 52.6846 3.93848 52.6539 3.72205 52.657C3.40186 52.6523 3.08406 52.7128 2.78805 52.835C2.51572 52.9498 2.27297 53.1249 2.07805 53.347C1.87452 53.5828 1.72077 53.8573 1.62605 54.154C1.51739 54.4932 1.46437 54.8479 1.46905 55.204C1.46419 55.5724 1.51889 55.9391 1.63105 56.29C1.72923 56.5964 1.88616 56.8807 2.09305 57.127C2.28828 57.3574 2.53258 57.5413 2.80805 57.665C3.10234 57.7938 3.42085 57.8579 3.74205 57.853C4.07647 57.8716 4.40892 57.7909 4.69766 57.6212C4.98641 57.4515 5.21858 57.2002 5.36505 56.899H5.38505C5.36958 56.9517 5.36118 57.0062 5.36005 57.061C5.35671 57.1277 5.35505 57.1943 5.35505 57.261V57.789C5.3667 58.0062 5.33097 58.2234 5.25033 58.4254C5.16969 58.6274 5.04607 58.8095 4.88805 58.959C4.5275 59.2582 4.06679 59.4094 3.59905 59.382C3.18894 59.3809 2.78395 59.2909 2.41205 59.118C2.38361 59.1028 2.35231 59.0935 2.32013 59.0909C2.28794 59.0883 2.25557 59.0924 2.22504 59.1029C2.19452 59.1134 2.1665 59.1302 2.14275 59.152C2.119 59.1739 2.10004 59.2005 2.08705 59.23L2.03105 59.375Z" fill="#5A666F"/>
<path d="M31.7026 36.748C29.2583 36.7412 26.8453 36.1985 24.6336 35.158C23.9936 34.8073 23.5169 34.2193 23.3062 33.5206C23.0954 32.822 23.1674 32.0685 23.5066 31.4223C23.8459 30.7762 24.4253 30.2891 25.1201 30.0659C25.8149 29.8427 26.5695 29.9013 27.2216 30.229C28.6179 30.8552 30.1293 31.1836 31.6596 31.193C32.8756 31.193 34.1016 30.718 34.1016 29.657C34.1016 28.63 32.4496 27.957 30.5366 27.169C27.3596 25.869 23.4046 24.246 23.4046 19.736C23.4046 15.598 26.9646 12.818 32.2636 12.818C34.0133 12.7972 35.7487 13.1341 37.3636 13.808C38.03 14.1005 38.5551 14.6428 38.8262 15.3183C39.0972 15.9938 39.0925 16.7486 38.8131 17.4207C38.5337 18.0928 38.0019 18.6285 37.3318 18.9127C36.6618 19.197 35.907 19.2071 35.2296 18.941C34.2707 18.5647 33.2497 18.3716 32.2196 18.372C31.1326 18.372 29.8636 18.772 29.8636 19.908C29.8636 20.843 31.4636 21.488 33.3256 22.234C36.3796 23.461 40.5616 25.142 40.5616 29.699C40.5616 33.848 36.9186 36.746 31.7026 36.746" fill="#5A666F"/>
<path d="M75.7016 36.748C68.5186 36.748 63.3016 31.716 63.3016 24.783C63.2648 21.6409 64.4769 18.6128 66.6716 16.364C67.8649 15.2027 69.2778 14.2911 70.8276 13.6822C72.3774 13.0734 74.033 12.7796 75.6976 12.818C77.9287 12.7827 80.1311 13.3242 82.0916 14.39C82.4283 14.5775 82.7218 14.8338 82.9528 15.1422C83.1839 15.4506 83.3475 15.8043 83.4328 16.1801C83.5182 16.5559 83.5235 16.9455 83.4483 17.3235C83.3732 17.7015 83.2192 18.0594 82.9966 18.374L82.9786 18.399C82.5937 18.9385 82.0271 19.321 81.3828 19.4762C80.7386 19.6314 80.0599 19.549 79.4716 19.244C78.4 18.6814 77.2098 18.3822 75.9996 18.371C75.164 18.3513 74.3333 18.5034 73.559 18.8181C72.7847 19.1328 72.0833 19.6033 71.4984 20.2003C70.9134 20.7973 70.4575 21.5082 70.1587 22.2887C69.8599 23.0693 69.7248 23.903 69.7616 24.738C69.7301 25.5903 69.8741 26.4399 70.1845 27.2343C70.4949 28.0286 70.9652 28.7507 71.5662 29.3559C72.1672 29.961 72.886 30.4362 73.6782 30.752C74.4705 31.0679 75.3191 31.2176 76.1716 31.192C77.5947 31.1612 78.9865 30.7692 80.2166 30.053C80.8325 29.7069 81.5593 29.615 82.242 29.7969C82.9247 29.9789 83.5094 30.4203 83.8714 31.0271C84.2334 31.6338 84.3441 32.358 84.18 33.0452C84.0158 33.7324 83.5897 34.3283 82.9926 34.706C80.8019 36.0644 78.2701 36.7719 75.6926 36.746" fill="#5A666F"/>
<path d="M105.273 36.231C104.857 36.231 104.445 36.1491 104.061 35.99C103.677 35.8309 103.328 35.5977 103.034 35.3037C102.74 35.0097 102.507 34.6607 102.348 34.2766C102.189 33.8925 102.107 33.4808 102.107 33.065V22.757C102.107 19.851 101.253 18.719 99.0608 18.719C97.8026 18.7287 96.5821 19.1497 95.5854 19.9177C94.5888 20.6858 93.8707 21.7588 93.5408 22.973C93.3006 23.8577 93.1911 24.7727 93.2158 25.689V36.231C92.3787 36.2312 91.5498 36.0664 90.7763 35.7461C90.0029 35.4259 89.3001 34.9564 88.7081 34.3645C88.1161 33.7726 87.6465 33.0699 87.3261 32.2965C87.0057 31.5231 86.8408 30.6942 86.8408 29.857V7.89702C86.8408 7.05178 87.1766 6.24115 87.7743 5.64347C88.372 5.04579 89.1826 4.71002 90.0278 4.71002C90.8731 4.71002 91.6837 5.04579 92.2814 5.64347C92.8791 6.24115 93.2148 7.05178 93.2148 7.89702V16.097C93.2678 16.035 93.3638 15.945 93.4428 15.855C94.31 14.882 95.3766 14.1072 96.57 13.5831C97.7634 13.0591 99.0556 12.7981 100.359 12.818C105.723 12.818 108.442 15.784 108.442 21.634V33.064C108.442 33.9037 108.108 34.709 107.515 35.3027C106.921 35.8965 106.115 36.23 105.276 36.23" fill="#5A666F"/>
<path d="M123.016 36.748C115.909 36.748 110.749 31.716 110.749 24.783C110.749 17.739 115.527 12.819 122.369 12.819C123.79 12.7633 125.206 13.0199 126.518 13.5709C127.829 14.1219 129.003 14.9538 129.958 16.008C131.738 18.1705 132.665 20.9092 132.565 23.708C132.565 24.367 132.44 25.8 132.434 25.861L132.398 26.27H117.314C117.519 27.7087 118.261 29.0166 119.39 29.9307C120.52 30.8447 121.954 31.2972 123.404 31.197C124.767 31.1693 126.107 30.8365 127.325 30.223C127.968 29.9036 128.711 29.8509 129.393 30.0762C130.075 30.3015 130.64 30.7867 130.966 31.4264C131.292 32.0661 131.353 32.8086 131.135 33.4927C130.916 34.1768 130.437 34.7472 129.801 35.08C127.709 36.1806 125.38 36.7541 123.016 36.751M126.116 21.621C126.109 21.123 126.002 20.6315 125.802 20.1754C125.602 19.7193 125.313 19.3078 124.951 18.9652C124.59 18.6227 124.164 18.3559 123.697 18.1807C123.231 18.0055 122.735 17.9253 122.237 17.945C121.144 17.8953 120.07 18.2384 119.208 18.912C118.346 19.5857 117.754 20.5456 117.538 21.618L126.116 21.621Z" fill="#5A666F"/>
<path d="M59.0865 13.336C58.4171 13.3362 57.7647 13.5462 57.221 13.9365C56.6773 14.3269 56.2697 14.8779 56.0555 15.512L52.3735 26.412C52.2425 26.805 52.1175 27.255 52.0085 27.683C51.8815 27.219 51.7345 26.73 51.5805 26.314L47.6245 15.444C47.4 14.8268 46.991 14.2937 46.453 13.9169C45.9151 13.5401 45.2742 13.338 44.6175 13.338H44.5485C44.019 13.3381 43.4979 13.4695 43.0317 13.7206C42.5656 13.9716 42.169 14.3344 41.8775 14.7764C41.586 15.2184 41.4088 15.7258 41.3617 16.2532C41.3145 16.7805 41.399 17.3113 41.6075 17.798L49.1635 35.441L48.4175 37.206C48.1831 37.9286 47.7335 38.5623 47.1288 39.0222C46.5242 39.482 45.7934 39.7461 45.0345 39.779C44.5645 39.7619 44.1034 39.6467 43.6805 39.441C43.319 39.2681 42.9232 39.1785 42.5225 39.179C42.3933 39.1794 42.2643 39.1887 42.1365 39.207C41.5783 39.2885 41.0599 39.5435 40.6546 39.9358C40.2493 40.3282 39.9777 40.8381 39.8781 41.3934C39.7786 41.9486 39.8562 42.5211 40.1 43.0298C40.3438 43.5385 40.7414 43.9577 41.2365 44.228L41.2595 44.24C42.5148 44.9132 43.9141 45.2734 45.3385 45.29C47.1896 45.301 48.9963 44.7236 50.4978 43.641C51.9994 42.5584 53.1181 41.0267 53.6925 39.267L62.0715 17.696C62.2597 17.2111 62.3269 16.6876 62.2672 16.1709C62.2075 15.6541 62.0228 15.1598 61.729 14.7305C61.4352 14.3013 61.0412 13.9501 60.5811 13.7075C60.121 13.4648 59.6086 13.338 59.0885 13.338" fill="#5A666F"/>
<path d="M6 18.44C4.81331 18.44 3.65328 18.0881 2.66658 17.4288C1.67989 16.7695 0.910851 15.8325 0.456726 14.7361C0.00259972 13.6397 -0.11622 12.4334 0.115291 11.2695C0.346802 10.1056 0.918247 9.03648 1.75736 8.19736C2.59648 7.35825 3.66558 6.7868 4.82946 6.55529C5.99335 6.32378 7.19975 6.4426 8.2961 6.89673C9.39246 7.35085 10.3295 8.11989 10.9888 9.10659C11.6481 10.0933 12 11.2533 12 12.44C11.9981 14.0307 11.3654 15.5558 10.2406 16.6806C9.11578 17.8054 7.59073 18.4382 6 18.44Z" fill="#C2D500"/>
<path d="M1.86233 30.329V24.622C1.86233 23.7797 2.19694 22.9719 2.79256 22.3762C3.38817 21.7806 4.196 21.446 5.03833 21.446H6.67733C8.51711 21.4453 10.3127 20.8819 11.8231 19.8315C13.3335 18.7811 14.4866 17.2938 15.1276 15.5693C15.7686 13.8448 15.8669 11.9655 15.4093 10.1836C14.9516 8.40162 13.96 6.80224 12.5673 5.60001C11.9284 5.05075 11.5339 4.27017 11.4705 3.43001C11.4071 2.58985 11.6801 1.75892 12.2293 1.12001C12.7786 0.481102 13.5592 0.0865577 14.3993 0.0231704C15.2395 -0.0402169 16.0704 0.232745 16.7093 0.782009C18.9634 2.72399 20.6055 5.27836 21.4363 8.13524C22.2672 10.9921 22.2511 14.0287 21.39 16.8767C20.529 19.7246 18.86 22.2614 16.5855 24.1794C14.311 26.0974 11.5287 27.3142 8.57633 27.682C8.47619 27.6942 8.38398 27.7427 8.31711 27.8182C8.25023 27.8937 8.21332 27.9911 8.21333 28.092V36.681C6.52867 36.681 4.91302 36.0118 3.72178 34.8205C2.53055 33.6293 1.86233 32.0137 1.86233 30.329Z" fill="#5A666F"/>
</g>
<defs>
<clipPath id="clip0_332_3929">
<rect width="132.565" height="60" fill="white"/>
</clipPath>
</defs>
</svg>
